<svg width="48" height="48" viewBox="0 0 48 48" fill="none" xmlns="http://www.w3.org/2000/svg">
<path d="M0 24C0 10.7452 10.7452 0 24 0C37.2548 0 48 10.7452 48 24C48 37.2548 37.2548 48 24 48C10.7452 48 0 37.2548 0 24Z" fill="#F26798"/>
<path fill-rule="evenodd" clip-rule="evenodd" d="M36.8002 23.9822C36.8002 24.8478 36.7121 25.7123 36.539 26.5549C36.3702 27.3775 36.1202 28.1851 35.7927 28.9572C35.4727 29.7155 35.0758 30.4464 34.612 31.1279C34.1551 31.8051 33.6288 32.4405 33.0507 33.0196C32.4713 33.5963 31.8337 34.1212 31.1568 34.58C30.4731 35.0405 29.7412 35.4369 28.9824 35.7583C28.2092 36.0841 27.3997 36.3338 26.5778 36.5023C25.7341 36.6758 24.8665 36.7644 23.9996 36.7644C23.1321 36.7644 22.2645 36.6758 21.422 36.5023C20.5988 36.3338 19.7894 36.0841 19.0169 35.7583C18.2581 35.4369 17.5255 35.0405 16.8418 34.58C16.1649 34.1212 15.5273 33.5963 14.9492 33.0196C14.3704 32.4405 13.8441 31.8051 13.3866 31.1279C12.9253 30.4464 12.5278 29.7155 12.2065 28.9572C11.879 28.1851 11.6284 27.3775 11.459 26.5549C11.2877 25.7123 11.2002 24.8478 11.2002 23.9822C11.2002 23.1159 11.2877 22.2496 11.459 21.4089C11.6284 20.5862 11.879 19.7774 12.2066 19.0066C12.5278 18.2477 12.9254 17.5162 13.3866 16.8346C13.8441 16.1568 14.3705 15.5227 14.9492 14.9429C15.5274 14.3661 16.1649 13.8425 16.8418 13.3844C17.5256 12.9219 18.2582 12.5256 19.0169 12.2036C19.7895 11.8771 20.5988 11.6268 21.422 11.4596C22.2646 11.2874 23.1321 11.2 23.9997 11.2C24.8666 11.2 25.7341 11.2874 26.5779 11.4596C27.3998 11.6269 28.2092 11.8771 28.9824 12.2036C29.7412 12.5256 30.4731 12.9219 31.1569 13.3844C31.8338 13.8425 32.4714 14.3661 33.0507 14.9429C33.6289 15.5227 34.1552 16.1568 34.6121 16.8346C35.0758 17.5162 35.4727 18.2477 35.7927 19.0066C36.1202 19.7774 36.3702 20.5862 36.539 21.4089C36.7121 22.2496 36.8002 23.1159 36.8002 23.9822ZM19.3356 14.109C16.2873 15.5465 14.0122 18.3513 13.3028 21.7316L13.3133 21.7317C13.6868 21.7351 18.2014 21.7769 23.3946 20.399C21.5026 17.0424 19.4813 14.3032 19.3356 14.109ZM13.0772 23.634C13.2709 23.6414 18.6718 23.7625 24.3002 22.0799C24.6133 22.6928 24.9128 23.3144 25.1872 23.9348C25.0434 23.976 24.8984 24.0184 24.7559 24.0659C18.8569 25.9707 15.8654 31.2702 15.8692 31.2758C14.1278 29.3428 13.0684 26.7864 13.0684 23.9822C13.0684 23.9013 13.0711 23.8221 13.0738 23.7423L13.0738 23.7423L13.0738 23.7423L13.0738 23.7422L13.0738 23.7422L13.0738 23.7422C13.075 23.7063 13.0762 23.6703 13.0772 23.634ZM31.2188 15.7898C29.2942 14.0953 26.7673 13.0674 23.9996 13.0674C23.1114 13.0674 22.2495 13.1748 21.4239 13.3732L21.4416 13.397L21.4416 13.397L21.4416 13.397L21.4417 13.397C21.7006 13.7434 23.6924 16.4073 25.5103 19.7406C29.6012 18.2091 31.1662 15.8684 31.2178 15.7913L31.2188 15.7898ZM25.9056 25.752L25.9322 25.7435C27.4704 29.7354 28.1054 33.0783 28.2673 34.032C26.9553 34.5892 25.5134 34.897 23.9996 34.897C21.4645 34.897 19.1369 34.0276 17.2811 32.5865C17.3039 32.5371 19.4101 28.0124 25.8597 25.7672C25.8748 25.7617 25.8902 25.7568 25.9056 25.752ZM30.1081 33.0346C32.5625 31.3807 34.3057 28.7543 34.792 25.7122C34.567 25.6398 31.5087 24.673 27.9804 25.2379C29.4142 29.1725 29.9968 32.3768 30.1081 33.0346ZM27.0779 22.9499C26.851 22.4174 26.6053 21.8876 26.3516 21.3671C30.6398 19.6183 32.3981 17.1098 32.4407 17.049L32.4414 17.0481C33.9751 18.9073 34.9021 21.2822 34.9271 23.8698C34.9241 23.8692 34.9197 23.8683 34.9141 23.8671C34.6272 23.8074 30.9974 23.0525 27.3142 23.5153C27.2373 23.3281 27.1586 23.1409 27.0779 22.9499Z" fill="white"/>
</svg>
