<svg width="35" height="30" viewBox="0 0 35 30" fill="none" xmlns="http://www.w3.org/2000/svg">
<path d="M21.1505 7.16476C21.1505 7.16476 21.1505 2.46533 18.8276 2.46634C16.9061 2.46715 16.815 4.44762 18.068 8.11025L21.1505 7.16476Z" fill="black"/>
<path d="M17.9928 4.39278C17.7385 4.50758 17.4856 4.58474 17.2459 4.62332C17.2987 5.52085 17.5815 6.6881 18.068 8.11024L21.1505 7.16483C21.1505 7.16483 21.1503 5.61217 20.7092 4.29195C20.3124 4.15024 19.8927 4.0751 19.4729 4.0751C18.9577 4.07504 18.4596 4.18194 17.9928 4.39278Z" fill="black"/>
<path d="M28.6778 16.8988L24.3778 15.2808C23.201 14.838 22.3575 13.7912 22.1751 12.5472L21.54 8.21545C21.4341 7.49322 21.0406 6.84458 20.449 6.41702C19.9771 6.07594 19.3562 5.99723 18.8255 6.23687C16.2874 7.38295 13.7246 6.25751 13.8402 3.15504C13.8742 2.24537 13.4724 1.37462 12.7346 0.841372L12.6657 0.791596C12.0477 0.344888 11.194 0.42677 10.6721 0.982743L2.90363 9.25874L16.6461 23.0386C17.6593 24.0546 19.0351 24.6255 20.47 24.6255H34.026C34.026 21.1876 31.8954 18.1096 28.6778 16.8988V16.8988Z" fill="white"/>
<path d="M12.0616 18.4416C11.9349 13.4519 13.1024 8.19988 14.5992 5.68684C14.0922 5.09741 13.7994 4.24939 13.8402 3.15512C13.8741 2.24544 13.4723 1.37462 12.7345 0.841449L12.6656 0.791672C12.0476 0.344965 11.1939 0.426846 10.672 0.98282L2.90363 9.25875L12.0616 18.4416Z" fill="white"/>
<path d="M13.8564 3.79492C13.8379 3.5919 13.8318 3.37876 13.8402 3.15504C13.8741 2.24537 13.4723 1.37455 12.7345 0.841372L12.6657 0.791596C12.0476 0.344888 11.1939 0.42677 10.672 0.982743L8.61676 3.17231C10.3127 4.21613 12.5245 4.57994 13.8564 3.79492V3.79492Z" fill="black"/>
<path d="M34.026 24.6256H20.47C19.0351 24.6256 17.6593 24.0545 16.6461 23.0386L2.90362 9.25876L1.23738 10.925C0.260872 11.9015 0.259861 13.4844 1.23509 14.4622L12.4012 25.6573C14.8511 28.1137 18.1779 29.4942 21.6472 29.4942H31.4449C32.8704 29.4942 34.026 28.3386 34.026 26.9131V24.6256Z" fill="black"/>
<path d="M2.90362 9.25876L1.23738 10.925C0.260872 11.9015 0.259861 13.4844 1.23509 14.4622L12.4012 25.6573C13.0207 26.2784 13.6964 26.8305 14.4162 27.3092C12.8315 25.1023 12.1477 21.8326 12.0616 18.4417L2.90362 9.25876Z" fill="black"/>
<path d="M2.90363 9.25875L11.1323 17.5099C10.8136 13.1477 9.38605 7.99397 6.97917 4.91699L2.90363 9.25875Z" fill="black"/>
<path d="M20.8137 24.6256H34.026C34.026 21.2883 32.0181 18.2904 28.9573 17.0102C30.8496 18.7793 29.7896 21.8729 27.251 21.8729H23.5663C22.0461 21.8729 20.8137 23.1053 20.8137 24.6256V24.6256Z" fill="black"/>
<path d="M15.4169 6.33151C15.4335 11.2905 15.9256 18.4124 24.7177 15.4088L24.3778 15.2809C23.201 14.8381 22.3575 13.7913 22.1752 12.5473L21.54 8.21553C21.4341 7.4933 21.0406 6.84465 20.449 6.4171C19.9771 6.07602 19.3562 5.99731 18.8256 6.23695C17.5915 6.79407 16.3518 6.81424 15.4169 6.33151V6.33151Z" fill="black"/>
<path d="M33.5158 20.5299C33.3851 20.283 33.0788 20.1887 32.8321 20.3193C32.5851 20.45 32.4908 20.7561 32.6214 21.0031C33.1305 21.9653 33.4317 23.0334 33.5034 24.1198H21.3777C21.6078 23.1238 22.5015 22.3789 23.5663 22.3789H27.251C29.4758 22.3789 30.8237 20.322 30.3242 18.3535C30.6687 18.6039 30.9933 18.8835 31.2963 19.1919C31.4922 19.3912 31.8125 19.394 32.0117 19.1981C32.2109 19.0023 32.2138 18.682 32.018 18.4827C31.1203 17.5693 30.0564 16.8772 28.8559 16.4255C28.3837 16.2478 25.0301 14.9859 24.5559 14.8075C23.5517 14.4296 22.8313 13.5356 22.6756 12.474L22.0405 8.14222C21.9825 7.74711 21.8491 7.36846 21.654 7.02508C21.6447 6.66814 21.5968 5.68792 21.3512 4.69394C20.7928 2.43484 19.6713 1.96061 18.8284 1.96061C18.8281 1.96061 18.8277 1.96061 18.8274 1.96061C18.1018 1.96095 17.5503 2.20053 17.1883 2.67273C16.659 3.36333 16.5886 4.48195 16.9744 6.16701C15.4233 6.19527 14.2709 5.18132 14.3457 3.17414C14.3864 2.08135 13.8948 1.05614 13.0308 0.43157L12.962 0.381861C12.1402 -0.212153 10.9971 -0.10255 10.3032 0.636814C9.93787 1.02585 3.7019 7.66921 2.54086 8.90613L0.879749 10.5673C-0.291822 11.7389 -0.293103 13.6464 0.876983 14.8194L1.79947 15.7443C1.99642 15.9418 2.31679 15.9429 2.51482 15.7453C2.71265 15.548 2.71305 15.2277 2.51577 15.0299L1.59328 14.105C0.816685 13.3265 0.817562 12.0604 1.5951 11.2827L2.90312 9.97471L16.2879 23.396C17.4041 24.5151 18.8893 25.1315 20.4699 25.1315H33.52V26.9132C33.52 28.0575 32.589 28.9884 31.4447 28.9884H21.6472C18.4041 28.9884 15.1807 27.7278 12.7593 25.3002L4.22267 16.7412C4.02545 16.5434 3.70514 16.5429 3.50732 16.7402C3.30949 16.9375 3.30909 17.2578 3.50637 17.4556L12.043 26.0145C14.5181 28.4959 17.9422 30 21.6472 30H31.4449C33.147 30 34.5319 28.6152 34.5319 26.913V24.6256C34.5318 23.2027 34.1805 21.7864 33.5158 20.5299V20.5299ZM17.9914 3.28806C18.0512 3.20995 18.2333 2.9724 18.8278 2.97213H18.8283C19.8904 2.97213 20.3632 4.57409 20.5457 5.87981C19.9521 5.54143 19.2331 5.49779 18.6173 5.77581C18.4036 5.87232 18.1895 5.95043 17.9773 6.0114C17.5797 4.31448 17.7574 3.59319 17.9914 3.28806ZM19.0336 6.69795C19.9535 6.28275 20.8924 7.2863 21.0394 8.28892L21.153 9.06362H19.1931C18.9137 9.06362 18.6873 9.29011 18.6873 9.56948C18.6873 9.84885 18.9137 10.0753 19.1931 10.0753H21.3014L21.5896 12.0414H19.4971C19.2176 12.0414 18.9912 12.2679 18.9912 12.5473C18.9912 12.8267 19.2176 13.0532 19.4971 13.0532H21.7632C22.0036 13.9677 22.5626 14.761 23.329 15.2957C21.1879 15.8351 19.5187 15.6905 18.3567 14.8625C16.2229 13.3418 15.9715 9.69237 15.9296 7.06035C16.964 7.32117 18.0734 7.13158 19.0336 6.69795ZM11.0409 1.32896C11.3877 0.959553 11.9587 0.904785 12.3694 1.20162C12.3855 1.22078 13.3843 1.80474 13.3347 3.13623C13.3302 3.25649 13.3308 3.37412 13.3336 3.49047C12.3346 3.90656 10.8118 3.7289 9.43046 3.04457L11.0409 1.32896ZM3.60741 9.24809L6.93232 5.70593C8.66526 8.18579 9.99655 12.1086 10.4908 16.1502L3.60741 9.24809ZM20.3478 24.1168C19.0839 24.086 17.9004 23.58 17.0043 22.6815L11.6216 17.2841C11.3012 13.262 10.017 8.23348 7.63864 4.95355L8.71153 3.81058C10.1221 4.57894 11.976 4.99935 13.4655 4.51811C13.6817 5.40073 14.1608 6.13901 14.9128 6.62329C14.9433 10.3323 15.3421 13.9566 17.7696 15.6863C19.7354 17.0871 22.4245 16.6999 24.7073 15.9453C28.738 17.4632 28.4809 17.3628 28.6714 17.4396C30.1381 18.9006 29.3134 21.3671 27.251 21.3671H23.5663C21.9427 21.3671 20.593 22.5609 20.3478 24.1168Z" fill="black"/>
</svg>
